<?xml version="1.0" encoding="UTF-8"?> <!-- Generator: Adobe Illustrator 24.1.1, SVG Export Plug-In --> <svg xmlns="http://www.w3.org/2000/svg" xmlns:xlink="http://www.w3.org/1999/xlink" version="1.1" x="0px" y="0px" width="122.13px" height="30.53px" viewBox="0 0 122.13 30.53" style="enable-background:new 0 0 122.13 30.53;" xml:space="preserve"> <style type="text/css"> .st0{fill:#FFFFFF;} </style> <defs> </defs> <g> <path class="st0" d="M32.55,1.51c3.57,0,6.58,3.01,6.58,6.58v10.85c0,0.43,0.33,0.78,0.73,0.78c0.44,0,0.78-0.33,0.78-0.78V7.95 c0.04-1.65,0.76-3.29,1.97-4.5c1.25-1.25,2.88-1.94,4.61-1.94h1.65c3.54,0,6.53,3.01,6.53,6.58v10.85c0,0.46,0.4,0.78,0.78,0.78 c0.44,0,0.78-0.33,0.78-0.78V8.04V7.99c-0.04-2.13-0.91-4.13-2.45-5.65C52.97,0.83,50.97,0,48.87,0h-1.65 c-1.41,0-2.73,0.35-3.94,1.03c-1.19,0.68-2.2,1.65-3.02,2.89l0,0l0,0L39.86,4.6l-0.39-0.67C38.05,1.5,35.4,0,32.55,0H30.9 c-2.12,0-4.12,0.84-5.66,2.37c-1.52,1.52-2.38,3.51-2.43,5.62l0,10.94c0,0.44,0.33,0.78,0.78,0.78c0.4,0,0.73-0.35,0.73-0.78V7.95 c0.09-3.49,3.1-6.44,6.58-6.44H32.55z"></path> <path class="st0" d="M70.38,19.71c2.13,0,4.15-0.85,5.69-2.4c1.54-1.54,2.39-3.57,2.39-5.69V8.09c0-2.13-0.85-4.15-2.39-5.69 S72.5,0,70.38,0h-3.54c-2.13,0-4.15,0.85-5.69,2.39c-1.54,1.54-2.39,3.57-2.39,5.69v3.54c0,2.13,0.85,4.15,2.39,5.69 c1.54,1.54,3.57,2.4,5.69,2.4H70.38z M62.22,16.23c-1.24-1.25-1.96-2.93-1.96-4.61V8.09c0-1.74,0.71-3.4,1.99-4.66 c1.24-1.22,2.92-1.92,4.59-1.92h3.54c3.56,0,6.58,3.01,6.58,6.58v3.54c0,3.57-3.01,6.58-6.58,6.58h-3.54 C65.12,18.2,63.48,17.5,62.22,16.23z"></path> <path class="st0" d="M92.58,19.71c2.13,0,4.15-0.85,5.69-2.4c1.54-1.54,2.39-3.57,2.39-5.69V8.09c0-2.13-0.85-4.15-2.39-5.69 C96.72,0.85,94.7,0,92.58,0h-3.54c-2.13,0-4.15,0.85-5.69,2.39c-1.54,1.54-2.39,3.57-2.39,5.69v3.54c0,2.13,0.85,4.15,2.39,5.69 c1.54,1.54,3.57,2.4,5.69,2.4H92.58z M84.42,16.23c-1.24-1.25-1.95-2.93-1.95-4.61V8.09c0-1.74,0.71-3.4,1.99-4.66 c1.24-1.22,2.92-1.92,4.59-1.92h3.54c3.57,0,6.58,3.01,6.58,6.58v3.54c0,3.57-3.01,6.58-6.58,6.58h-3.54 C87.32,18.2,85.68,17.5,84.42,16.23z"></path> <path class="st0" d="M108.13,17.33c0.64,1.47,2,2.38,3.57,2.38c1.58,0,2.93-0.91,3.52-2.38l6.84-16.34c0.06-0.08,0.06-0.2,0.06-0.3 c0-0.38-0.32-0.69-0.73-0.69c-0.23,0-0.52,0.17-0.59,0.41l-6.84,16.4c-0.45,0.94-1.28,1.48-2.27,1.48c-1.05,0-1.86-0.53-2.27-1.48 L102.58,0.4l0,0l0,0c-0.11-0.22-0.39-0.4-0.63-0.4c-0.46,0-0.73,0.35-0.73,0.69c0,0.1,0,0.22,0.06,0.3L108.13,17.33z"></path> <path class="st0" d="M16.18,19.15c0.9-0.4,1.7-0.95,2.37-1.64c0.67-0.68,1.22-1.48,1.62-2.37c0.4-0.89,0.61-1.84,0.61-2.83V7.5 c0-1.04-0.21-2.03-0.62-2.92v0c-0.41-0.89-0.97-1.68-1.65-2.35c-0.68-0.67-1.49-1.21-2.39-1.59c-0.9-0.38-1.85-0.57-2.8-0.57H2.4 c-0.68,0-1.26,0.25-1.72,0.74C0.23,1.29,0,1.85,0,2.46v14.91c0,0.68,0.24,1.25,0.73,1.71c0.48,0.45,1.04,0.69,1.67,0.69H13.3 C14.31,19.76,15.27,19.56,16.18,19.15z M18.81,14.5c-0.34,0.76-0.81,1.44-1.38,2.03c-0.57,0.58-1.26,1.05-2.02,1.39 c-0.76,0.34-1.58,0.51-2.43,0.51H3.17c-0.46,0-0.85-0.16-1.21-0.5c-0.35-0.33-0.52-0.73-0.52-1.23V3.04c0-0.44,0.16-0.83,0.5-1.19 c0.33-0.36,0.73-0.53,1.22-0.53h9.81c0.81,0,1.61,0.16,2.38,0.49c0.77,0.32,1.45,0.78,2.04,1.35c0.58,0.57,1.06,1.25,1.41,2.01 c0.35,0.75,0.53,1.59,0.53,2.47v4.47C19.33,12.94,19.15,13.75,18.81,14.5z"></path> <g> <path class="st0" d="M49.37,29.35c-0.07,0.32-0.22,0.6-0.43,0.81c-0.11,0.11-0.26,0.2-0.43,0.27c-0.18,0.07-0.38,0.1-0.6,0.1 c-0.24,0-0.46-0.04-0.67-0.11c-0.2-0.08-0.4-0.24-0.59-0.48v0.54H46.2v-6.24h0.45v2.56c0.19-0.25,0.38-0.41,0.59-0.48 c0.2-0.08,0.43-0.11,0.67-0.11c0.22,0,0.42,0.03,0.6,0.1c0.18,0.07,0.32,0.16,0.43,0.27c0.22,0.22,0.36,0.49,0.43,0.81 c0.07,0.32,0.11,0.65,0.11,0.99C49.48,28.69,49.44,29.02,49.37,29.35z M48.99,27.72c-0.03-0.21-0.08-0.4-0.17-0.57 c-0.08-0.17-0.21-0.3-0.36-0.4c-0.16-0.1-0.37-0.15-0.62-0.15c-0.26,0-0.46,0.05-0.62,0.15c-0.16,0.1-0.28,0.24-0.36,0.4 c-0.08,0.17-0.14,0.36-0.17,0.57c-0.03,0.21-0.04,0.43-0.04,0.64c0,0.22,0.01,0.44,0.04,0.65c0.03,0.21,0.08,0.4,0.17,0.57 c0.08,0.17,0.21,0.3,0.36,0.4c0.16,0.1,0.37,0.15,0.62,0.15c0.26,0,0.46-0.05,0.62-0.15c0.16-0.1,0.28-0.24,0.36-0.4 c0.08-0.17,0.14-0.36,0.17-0.57c0.03-0.21,0.04-0.43,0.04-0.65C49.03,28.14,49.02,27.93,48.99,27.72z"></path> <path class="st0" d="M55.2,30.47v-0.42c-0.18,0.18-0.37,0.31-0.56,0.37c-0.19,0.07-0.43,0.1-0.73,0.1c-0.32,0-0.57-0.03-0.76-0.09 c-0.19-0.06-0.35-0.16-0.49-0.3c-0.1-0.1-0.18-0.22-0.23-0.37c-0.05-0.15-0.08-0.3-0.08-0.46c0-0.39,0.13-0.69,0.39-0.9 c0.26-0.21,0.62-0.32,1.08-0.32h1.37v-0.47c0-0.34-0.09-0.6-0.27-0.77c-0.18-0.18-0.49-0.26-0.92-0.26c-0.3,0-0.53,0.04-0.71,0.12 c-0.17,0.08-0.33,0.22-0.46,0.41l-0.32-0.28c0.18-0.25,0.39-0.42,0.62-0.51c0.23-0.09,0.52-0.14,0.87-0.14 c0.56,0,0.97,0.12,1.24,0.36c0.27,0.24,0.4,0.58,0.4,1.03v2.89H55.2z M55.2,28.46h-1.32c-0.72,0-1.08,0.28-1.08,0.85 c0,0.28,0.09,0.49,0.26,0.62c0.18,0.13,0.46,0.2,0.84,0.2c0.19,0,0.38-0.02,0.56-0.05c0.18-0.04,0.34-0.13,0.5-0.27 c0.16-0.15,0.24-0.42,0.24-0.81V28.46z"></path> <path class="st0" d="M61.48,26.92c-0.13-0.13-0.25-0.22-0.36-0.26c-0.11-0.05-0.26-0.07-0.43-0.07c-0.18,0-0.34,0.04-0.48,0.11 c-0.14,0.07-0.26,0.16-0.36,0.28c-0.1,0.12-0.17,0.25-0.22,0.41c-0.05,0.15-0.07,0.32-0.07,0.49v2.6h-0.45v-4.23h0.45v0.56 c0.12-0.2,0.3-0.35,0.52-0.46c0.23-0.11,0.46-0.16,0.71-0.16c0.2,0,0.39,0.03,0.55,0.09c0.16,0.06,0.32,0.16,0.47,0.32 L61.48,26.92z"></path> <path class="st0" d="M66.86,26.92c-0.13-0.13-0.25-0.22-0.36-0.26c-0.11-0.05-0.26-0.07-0.43-0.07c-0.18,0-0.34,0.04-0.48,0.11 c-0.14,0.07-0.26,0.16-0.36,0.28c-0.1,0.12-0.17,0.25-0.22,0.41c-0.05,0.15-0.07,0.32-0.07,0.49v2.6h-0.45v-4.23h0.45v0.56 c0.12-0.2,0.3-0.35,0.52-0.46c0.23-0.11,0.46-0.16,0.71-0.16c0.2,0,0.39,0.03,0.55,0.09c0.16,0.06,0.32,0.16,0.47,0.32 L66.86,26.92z"></path> <path class="st0" d="M69.81,24.78v-0.55h0.55v0.55H69.81z M69.86,30.47v-4.23h0.45v4.23H69.86z"></path> <path class="st0" d="M76.86,29.27c-0.06,0.3-0.21,0.57-0.43,0.79c-0.15,0.15-0.33,0.27-0.52,0.35c-0.2,0.08-0.41,0.12-0.65,0.12 c-0.47,0-0.87-0.15-1.18-0.46c-0.22-0.22-0.37-0.49-0.43-0.79c-0.06-0.3-0.1-0.61-0.1-0.91c0-0.3,0.03-0.61,0.1-0.91 c0.06-0.3,0.21-0.57,0.43-0.79c0.31-0.31,0.7-0.46,1.18-0.46c0.24,0,0.46,0.04,0.65,0.12c0.2,0.08,0.37,0.19,0.52,0.35 c0.22,0.22,0.37,0.49,0.43,0.79c0.06,0.3,0.1,0.61,0.1,0.91C76.96,28.66,76.92,28.97,76.86,29.27z M76.5,27.98 c-0.01-0.13-0.02-0.26-0.05-0.38c-0.03-0.13-0.06-0.24-0.11-0.36c-0.05-0.11-0.12-0.21-0.21-0.3c-0.12-0.12-0.25-0.21-0.4-0.27 c-0.15-0.06-0.31-0.09-0.48-0.09c-0.35,0-0.64,0.12-0.88,0.36c-0.09,0.09-0.16,0.19-0.21,0.3c-0.05,0.11-0.09,0.23-0.11,0.36 c-0.03,0.13-0.04,0.25-0.05,0.38C74,28.11,74,28.24,74,28.36c0,0.12,0,0.25,0.01,0.38c0.01,0.13,0.02,0.26,0.05,0.38 c0.03,0.13,0.06,0.24,0.11,0.36c0.05,0.11,0.12,0.21,0.21,0.3c0.24,0.24,0.53,0.36,0.88,0.36c0.17,0,0.33-0.03,0.48-0.09 c0.15-0.06,0.28-0.15,0.4-0.27c0.09-0.09,0.16-0.19,0.21-0.3c0.05-0.11,0.09-0.23,0.11-0.36c0.03-0.13,0.04-0.25,0.05-0.38 c0.01-0.13,0.01-0.25,0.01-0.38C76.51,28.24,76.51,28.11,76.5,27.98z"></path> <path class="st0" d="M86.9,30.19c-0.11,0.08-0.21,0.15-0.32,0.2c-0.11,0.05-0.22,0.08-0.34,0.11c-0.12,0.02-0.25,0.03-0.4,0.03 c-0.29,0-0.55-0.05-0.78-0.15c-0.23-0.1-0.43-0.24-0.59-0.43c-0.16-0.19-0.28-0.42-0.37-0.68c-0.08-0.27-0.13-0.57-0.13-0.9 c0-0.33,0.04-0.63,0.13-0.9c0.08-0.27,0.21-0.5,0.37-0.68c0.16-0.19,0.36-0.33,0.59-0.43c0.23-0.1,0.49-0.15,0.78-0.15 c0.15,0,0.28,0.01,0.4,0.03c0.12,0.02,0.23,0.06,0.34,0.11c0.11,0.05,0.21,0.12,0.32,0.2c0.11,0.08,0.22,0.19,0.33,0.31 l-0.31,0.28c-0.18-0.2-0.35-0.34-0.51-0.42c-0.16-0.08-0.35-0.12-0.57-0.12c-0.24,0-0.45,0.05-0.64,0.14 c-0.19,0.09-0.35,0.23-0.48,0.42c-0.11,0.15-0.18,0.32-0.22,0.5c-0.04,0.18-0.07,0.42-0.07,0.71c0,0.29,0.02,0.52,0.07,0.71 c0.04,0.18,0.12,0.35,0.22,0.5c0.13,0.19,0.29,0.33,0.48,0.42c0.19,0.09,0.4,0.14,0.64,0.14c0.11,0,0.21-0.01,0.31-0.03 c0.09-0.02,0.18-0.05,0.27-0.09c0.08-0.04,0.17-0.1,0.25-0.17c0.08-0.07,0.17-0.15,0.26-0.25l0.31,0.28 C87.12,30,87.01,30.1,86.9,30.19z"></path> <path class="st0" d="M90.41,28.46c0,0.54,0.12,0.96,0.35,1.24c0.23,0.29,0.58,0.43,1.03,0.43c0.25,0,0.46-0.04,0.64-0.12 c0.17-0.08,0.35-0.21,0.53-0.39l0.33,0.26c-0.11,0.11-0.21,0.2-0.32,0.28c-0.11,0.08-0.22,0.15-0.34,0.2 c-0.12,0.05-0.25,0.09-0.39,0.12c-0.14,0.03-0.3,0.04-0.47,0.04c-0.58,0-1.03-0.18-1.34-0.55c-0.31-0.37-0.46-0.91-0.46-1.61 c0-0.68,0.15-1.22,0.45-1.6c0.3-0.38,0.71-0.57,1.25-0.57c0.53,0,0.95,0.18,1.25,0.54c0.3,0.36,0.45,0.87,0.45,1.52v0.2H90.41z M92.88,27.84c-0.01-0.07-0.01-0.14-0.03-0.19c-0.01-0.06-0.03-0.11-0.04-0.17c-0.02-0.06-0.04-0.12-0.06-0.18 c-0.09-0.22-0.24-0.4-0.43-0.52c-0.2-0.13-0.42-0.19-0.66-0.19c-0.25,0-0.47,0.06-0.66,0.19c-0.2,0.13-0.34,0.3-0.43,0.52 c-0.03,0.06-0.05,0.12-0.07,0.18c-0.01,0.06-0.03,0.11-0.04,0.17c-0.01,0.06-0.02,0.12-0.03,0.19c-0.01,0.07-0.01,0.16-0.02,0.26 h2.49C92.9,28,92.89,27.91,92.88,27.84z"></path> <path class="st0" d="M99.39,30.47v-2.62c0-0.41-0.1-0.72-0.3-0.94c-0.2-0.22-0.49-0.32-0.87-0.32c-0.38,0-0.67,0.11-0.88,0.33 c-0.21,0.22-0.31,0.53-0.31,0.93v2.62h-0.45v-4.23h0.45v0.5c0.32-0.37,0.73-0.55,1.25-0.55c0.47,0,0.84,0.13,1.12,0.4 c0.29,0.28,0.44,0.67,0.44,1.18v2.7H99.39z"></path> <path class="st0" d="M104.4,30.47c-0.33,0-0.59-0.1-0.76-0.31c-0.17-0.21-0.26-0.47-0.26-0.79v-2.79h-0.58v-0.33h0.58V24.9h0.45 v1.35h0.96v0.33h-0.96v2.8c0,0.22,0.05,0.39,0.16,0.52c0.11,0.12,0.27,0.18,0.49,0.18h0.31v0.39H104.4z"></path> <path class="st0" d="M110.29,26.92c-0.13-0.13-0.25-0.22-0.36-0.26c-0.11-0.05-0.26-0.07-0.43-0.07c-0.18,0-0.34,0.04-0.48,0.11 c-0.14,0.07-0.26,0.16-0.36,0.28c-0.1,0.12-0.17,0.25-0.22,0.41c-0.05,0.15-0.07,0.32-0.07,0.49v2.6h-0.45v-4.23h0.45v0.56 c0.12-0.2,0.3-0.35,0.52-0.46c0.23-0.11,0.46-0.16,0.71-0.16c0.2,0,0.39,0.03,0.55,0.09c0.16,0.06,0.32,0.16,0.47,0.32 L110.29,26.92z"></path> <path class="st0" d="M115.69,30.47v-0.42c-0.18,0.18-0.37,0.31-0.56,0.37c-0.19,0.07-0.43,0.1-0.73,0.1 c-0.32,0-0.57-0.03-0.76-0.09c-0.19-0.06-0.35-0.16-0.49-0.3c-0.1-0.1-0.18-0.22-0.23-0.37c-0.05-0.15-0.08-0.3-0.08-0.46 c0-0.39,0.13-0.69,0.39-0.9c0.26-0.21,0.62-0.32,1.08-0.32h1.37v-0.47c0-0.34-0.09-0.6-0.27-0.77c-0.18-0.18-0.49-0.26-0.92-0.26 c-0.3,0-0.53,0.04-0.71,0.12c-0.17,0.08-0.33,0.22-0.46,0.41L113,26.84c0.18-0.25,0.39-0.42,0.62-0.51 c0.23-0.09,0.52-0.14,0.87-0.14c0.56,0,0.97,0.12,1.24,0.36c0.27,0.24,0.4,0.58,0.4,1.03v2.89H115.69z M115.69,28.46h-1.32 c-0.72,0-1.08,0.28-1.08,0.85c0,0.28,0.09,0.49,0.26,0.62c0.18,0.13,0.46,0.2,0.84,0.2c0.19,0,0.38-0.02,0.56-0.05 c0.18-0.04,0.34-0.13,0.5-0.27c0.16-0.15,0.24-0.42,0.24-0.81V28.46z"></path> <path class="st0" d="M120.59,30.47c-0.35,0-0.6-0.1-0.77-0.3c-0.17-0.2-0.25-0.46-0.25-0.8v-5.15h0.45v5.14 c0,0.24,0.05,0.42,0.14,0.54c0.09,0.12,0.26,0.18,0.51,0.18h0.31v0.39H120.59z"></path> </g> </g> </svg> 