<?xml version="1.0" encoding="utf-8"?>
<!-- Generator: Adobe Illustrator 23.0.5, SVG Export Plug-In . SVG Version: 6.00 Build 0)  -->
<svg version="1.1" id="Capa_1" xmlns="http://www.w3.org/2000/svg" xmlns:xlink="http://www.w3.org/1999/xlink" x="0px" y="0px"
	 viewBox="0 0 122.1 32.9" style="enable-background:new 0 0 122.1 32.9;" xml:space="preserve">
<style type="text/css">
	.st0{fill:#FFFFFF;}
</style>
<g>
	<g>
		<path class="st0" d="M17.3,27.1V31h-0.4v-3.9h-0.6v-0.3h0.6v-0.9c0-0.3,0.1-0.6,0.3-0.8c0.2-0.2,0.4-0.3,0.8-0.3h0.4v0.4H18
			c-0.4,0-0.6,0.2-0.6,0.7v0.9h0.9v0.3C18.3,27.1,17.3,27.1,17.3,27.1z"/>
		<path class="st0" d="M20.7,24.8h0.5v0.5h-0.5V24.8z M20.7,26.8h0.4V31h-0.4V26.8z"/>
		<path class="st0" d="M25.3,31c-0.3,0-0.6-0.1-0.7-0.3c-0.2-0.2-0.3-0.5-0.3-0.8v-2.8h-0.6v-0.3h0.6v-1.3h0.4v1.3h0.9v0.3h-0.9v2.8
			c0,0.5,0.2,0.7,0.6,0.7h0.3V31H25.3z"/>
		<path class="st0" d="M31.2,31v-2.6c0-0.8-0.4-1.3-1.2-1.3c-0.4,0-0.7,0.1-0.9,0.3s-0.3,0.5-0.3,0.9V31h-0.4v-4.2h0.4v0.5
			c0.3-0.4,0.7-0.5,1.2-0.5c0.5,0,0.8,0.1,1.1,0.4c0.3,0.3,0.4,0.7,0.4,1.1V31L31.2,31L31.2,31z"/>
		<path class="st0" d="M34.8,29c0,0.5,0.1,0.9,0.3,1.2c0.2,0.3,0.6,0.4,1,0.4c0.4,0,0.8-0.2,1.2-0.5l0.3,0.3
			c-0.2,0.2-0.4,0.4-0.7,0.5C36.7,31,36.5,31,36.1,31c-0.6,0-1-0.2-1.3-0.5c-0.3-0.4-0.5-0.9-0.5-1.6c0-0.7,0.2-1.2,0.4-1.6
			s0.7-0.6,1.2-0.6c0.5,0,0.9,0.2,1.2,0.5c0.3,0.4,0.4,0.9,0.4,1.5V29L34.8,29L34.8,29z M37.1,27.8c-0.1-0.2-0.2-0.4-0.4-0.5
			c-0.2-0.1-0.4-0.2-0.7-0.2c-0.2,0-0.5,0.1-0.7,0.2c-0.2,0.1-0.3,0.3-0.4,0.5c-0.1,0.2-0.1,0.3-0.1,0.4c0,0.1,0,0.2,0,0.4h2.5
			c0-0.2,0-0.3,0-0.4C37.2,28.1,37.2,28,37.1,27.8"/>
		<path class="st0" d="M41.8,31c-0.7,0-1.3-0.2-1.7-0.6l0.3-0.3c0.3,0.3,0.8,0.5,1.4,0.5c0.8,0,1.3-0.3,1.3-0.9
			c0-0.4-0.3-0.6-0.8-0.7L41.5,29c-0.4,0-0.7-0.1-0.9-0.3c-0.2-0.2-0.3-0.5-0.3-0.8c0-0.4,0.1-0.6,0.4-0.9c0.3-0.2,0.6-0.3,1.1-0.3
			c0.3,0,0.6,0,0.8,0.1c0.3,0.1,0.5,0.2,0.7,0.3l-0.3,0.3c-0.3-0.2-0.7-0.4-1.2-0.4c-0.3,0-0.6,0.1-0.8,0.2
			c-0.2,0.1-0.3,0.3-0.3,0.6c0,0.4,0.3,0.6,0.8,0.7l0.7,0.1c0.4,0,0.7,0.1,0.9,0.3c0.2,0.2,0.3,0.4,0.3,0.8c0,0.4-0.2,0.7-0.4,0.9
			C42.7,30.9,42.3,31,41.8,31"/>
		<path class="st0" d="M47.4,31c-0.7,0-1.3-0.2-1.7-0.6l0.3-0.3c0.3,0.3,0.8,0.5,1.4,0.5c0.8,0,1.3-0.3,1.3-0.9
			c0-0.4-0.3-0.6-0.8-0.7L47.1,29c-0.4,0-0.7-0.1-0.9-0.3c-0.2-0.2-0.3-0.5-0.3-0.8c0-0.4,0.1-0.6,0.4-0.9c0.3-0.2,0.6-0.3,1.1-0.3
			c0.3,0,0.6,0,0.8,0.1c0.3,0.1,0.5,0.2,0.7,0.3l-0.3,0.3c-0.3-0.2-0.7-0.4-1.2-0.4c-0.3,0-0.6,0.1-0.8,0.2
			c-0.2,0.1-0.3,0.3-0.3,0.6c0,0.4,0.3,0.6,0.8,0.7l0.7,0.1c0.4,0,0.7,0.1,0.9,0.3c0.2,0.2,0.3,0.4,0.3,0.8c0,0.4-0.2,0.7-0.4,0.9
			C48.3,30.9,47.9,31,47.4,31"/>
		<rect x="53.7" y="23.3" class="st0" width="0.3" height="9.6"/>
	</g>
	<g>
		<path class="st0" d="M32.5,1.5c3.6,0,6.6,3,6.6,6.6v10.8c0,0.4,0.3,0.8,0.7,0.8c0.4,0,0.8-0.3,0.8-0.8v-11c0-1.7,0.8-3.3,2-4.5
			c1.3-1.3,2.9-1.9,4.6-1.9h1.7c3.5,0,6.5,3,6.5,6.6v10.8c0,0.5,0.4,0.8,0.8,0.8c0.4,0,0.8-0.3,0.8-0.8V8V8c0-2.1-0.9-4.1-2.5-5.7
			C53,0.8,51,0,48.9,0h-1.7c-1.4,0-2.7,0.3-3.9,1c-1.2,0.7-2.2,1.6-3,2.9l0,0l0,0l-0.4,0.7l-0.4-0.7C38,1.5,35.4,0,32.5,0h-1.6
			c-2.1,0-4.1,0.8-5.7,2.4c-1.5,1.5-2.4,3.5-2.4,5.6v10.9c0,0.4,0.3,0.8,0.8,0.8c0.4,0,0.7-0.4,0.7-0.8v-11c0.1-3.5,3.1-6.4,6.6-6.4
			C30.9,1.5,32.5,1.5,32.5,1.5z"/>
		<path class="st0" d="M70.4,19.7c2.1,0,4.2-0.9,5.7-2.4c1.5-1.5,2.4-3.6,2.4-5.7V8.1c0-2.1-0.8-4.2-2.4-5.7S72.5,0,70.4,0h-3.5
			c-2.1,0-4.2,0.9-5.7,2.4c-1.5,1.5-2.4,3.6-2.4,5.7v3.5c0,2.1,0.8,4.2,2.4,5.7s3.6,2.4,5.7,2.4H70.4z M62.2,16.2
			c-1.2-1.2-2-2.9-2-4.6V8.1c0-1.7,0.7-3.4,2-4.7c1.2-1.2,2.9-1.9,4.6-1.9h3.5c3.6,0,6.6,3,6.6,6.6v3.5c0,3.6-3,6.6-6.6,6.6h-3.5
			C65.1,18.2,63.5,17.5,62.2,16.2z"/>
		<path class="st0" d="M92.6,19.7c2.1,0,4.2-0.9,5.7-2.4c1.5-1.5,2.4-3.6,2.4-5.7V8.1c0-2.1-0.8-4.2-2.4-5.7C96.7,0.8,94.7,0,92.6,0
			H89c-2.1,0-4.2,0.9-5.7,2.4S81,6,81,8.1v3.5c0,2.1,0.8,4.2,2.4,5.7s3.6,2.4,5.7,2.4H92.6z M84.4,16.2c-1.2-1.2-1.9-2.9-1.9-4.6
			V8.1c0-1.7,0.7-3.4,2-4.7c1.2-1.2,2.9-1.9,4.6-1.9h3.5c3.6,0,6.6,3,6.6,6.6v3.5c0,3.6-3,6.6-6.6,6.6h-3.5
			C87.3,18.2,85.7,17.5,84.4,16.2z"/>
		<path class="st0" d="M108.1,17.3c0.6,1.5,2,2.4,3.6,2.4c1.6,0,2.9-0.9,3.5-2.4L122.1,1c0.1-0.1,0.1-0.2,0.1-0.3
			c0-0.4-0.3-0.7-0.7-0.7c-0.2,0-0.5,0.2-0.6,0.4L114,16.8c-0.4,0.9-1.3,1.5-2.3,1.5c-1.1,0-1.9-0.5-2.3-1.5l-6.8-16.4l0,0l0,0
			C102.5,0.2,102.2,0,102,0c-0.5,0-0.7,0.3-0.7,0.7c0,0.1,0,0.2,0.1,0.3L108.1,17.3z"/>
		<path class="st0" d="M16.2,19.1c0.9-0.4,1.7-1,2.4-1.6c0.7-0.7,1.2-1.5,1.6-2.4c0.4-0.9,0.6-1.8,0.6-2.8V7.5c0-1-0.2-2-0.6-2.9
			l0,0c-0.4-0.9-1-1.7-1.6-2.3S17,1,16.1,0.6s-1.9-0.6-2.8-0.6H2.4c-0.7,0-1.3,0.3-1.7,0.7C0.2,1.3,0,1.8,0,2.5v14.9
			c0,0.7,0.2,1.3,0.7,1.7c0.5,0.5,1,0.7,1.7,0.7h10.9C14.3,19.8,15.3,19.6,16.2,19.1z M18.8,14.5c-0.3,0.8-0.8,1.4-1.4,2
			c-0.6,0.6-1.3,1-2,1.4s-1.6,0.5-2.4,0.5H3.2c-0.5,0-0.8-0.2-1.2-0.5c-0.4-0.3-0.5-0.7-0.5-1.2V3c0-0.4,0.2-0.8,0.5-1.2
			c0.3-0.4,0.7-0.5,1.2-0.5H13c0.8,0,1.6,0.2,2.4,0.5c0.8,0.3,1.5,0.8,2,1.3c0.6,0.6,1.1,1.3,1.4,2c0.4,0.8,0.5,1.6,0.5,2.5v4.5
			C19.3,12.9,19.1,13.7,18.8,14.5z"/>
	</g>
</g>
<g>
	<path class="st0" d="M59.4,26.6H60v4.3h-0.6V26.6z M62.2,28.3c0-0.4-0.1-0.7-0.3-0.9c-0.2-0.2-0.5-0.3-0.8-0.3
		c-0.4,0-0.6,0.1-0.8,0.3c-0.2,0.2-0.3,0.4-0.3,0.8l-0.1-0.8c0.2-0.3,0.4-0.5,0.6-0.6c0.2-0.1,0.5-0.2,0.9-0.2
		c0.5,0,0.8,0.2,1.1,0.5c0.3,0.3,0.4,0.7,0.4,1.3v2.6h-0.6V28.3z"/>
	<path class="st0" d="M64.7,29.2c0,0.4,0.1,0.7,0.3,0.9s0.5,0.3,0.8,0.3c0.4,0,0.6-0.1,0.8-0.3c0.2-0.2,0.3-0.5,0.3-0.8l0.1,0.9
		c-0.1,0.2-0.3,0.4-0.5,0.5c-0.2,0.1-0.5,0.2-0.9,0.2c-0.5,0-0.8-0.2-1.1-0.5c-0.3-0.3-0.4-0.7-0.4-1.3v-2.6h0.6V29.2z M66.9,26.6
		h0.6v4.3h-0.6V26.6z"/>
	<path class="st0" d="M69.9,31c0,0-0.1-0.1-0.4-0.2s-0.5-0.4-0.6-0.7s-0.2-0.6-0.2-1v-0.5c0-0.4,0.1-0.8,0.2-1.1
		c0.1-0.3,0.3-0.5,0.6-0.7s0.6-0.2,1-0.2c0.4,0,0.7,0.1,0.9,0.2s0.4,0.4,0.6,0.7c0.1,0.3,0.2,0.6,0.2,1.1V29H69v-0.5h2.5v0
		c0-0.4-0.1-0.7-0.3-1c-0.2-0.2-0.5-0.3-0.8-0.3c-0.4,0-0.7,0.1-0.9,0.4c-0.2,0.2-0.3,0.6-0.3,1v0.5c0,0.4,0.1,0.8,0.3,1
		c0.2,0.2,0.6,0.4,1,0.4c0.2,0,0.4,0,0.6-0.1c0.2-0.1,0.4-0.2,0.5-0.3l0.4,0.4c-0.2,0.2-0.4,0.4-0.7,0.5C71,30.9,70.8,31,70.5,31
		C70.1,31,69.9,31,69.9,31z"/>
	<path class="st0" d="M75.9,26.6h0.6l-1.7,4.3h-0.5l-1.7-4.3h0.6l1.3,3.5L75.9,26.6z"/>
	<path class="st0" d="M77.5,30.6c-0.3-0.2-0.4-0.6-0.4-1c0-0.4,0.1-0.7,0.4-0.9c0.3-0.2,0.6-0.3,1.1-0.3H80l0.1,0.6h-1.5
		c-0.3,0-0.5,0.1-0.6,0.2c-0.1,0.1-0.2,0.3-0.2,0.5c0,0.2,0.1,0.4,0.3,0.6s0.5,0.2,0.8,0.2c0.4,0,0.7,0,0.9-0.1
		c0.2-0.1,0.3-0.2,0.3-0.3l0.1,0.6c-0.1,0.1-0.2,0.2-0.3,0.2c-0.1,0.1-0.3,0.1-0.5,0.1c-0.2,0-0.4,0-0.6,0
		C78.2,31,77.8,30.8,77.5,30.6z M79.9,28.2c0-0.3-0.1-0.6-0.3-0.8c-0.2-0.2-0.4-0.3-0.8-0.3c-0.2,0-0.4,0-0.6,0.1
		c-0.2,0.1-0.4,0.2-0.5,0.3l-0.4-0.3c0.2-0.2,0.4-0.3,0.6-0.5c0.3-0.1,0.6-0.2,0.9-0.2c0.4,0,0.7,0.1,0.9,0.2s0.4,0.3,0.6,0.5
		c0.1,0.2,0.2,0.5,0.2,0.9v2.7h-0.6V28.2z"/>
	<path class="st0" d="M85.1,31c0,0-0.1-0.1-0.4-0.2c-0.3-0.1-0.5-0.3-0.6-0.6s-0.2-0.6-0.2-1v-0.7c0-0.4,0.1-0.7,0.2-1
		c0.1-0.3,0.3-0.5,0.6-0.6s0.6-0.2,1-0.2c0.2,0,0.4,0,0.6,0.1c0.2,0.1,0.4,0.1,0.5,0.2c0.2,0.1,0.3,0.2,0.4,0.4l-0.4,0.4
		c-0.1-0.2-0.3-0.3-0.5-0.4c-0.2-0.1-0.4-0.1-0.6-0.1c-0.4,0-0.7,0.1-1,0.3c-0.2,0.2-0.3,0.5-0.3,1v0.7c0,0.4,0.1,0.8,0.3,1
		c0.2,0.2,0.5,0.3,0.9,0.3c0.2,0,0.4,0,0.6-0.1c0.2-0.1,0.4-0.2,0.5-0.4l0.4,0.4c-0.1,0.2-0.2,0.3-0.4,0.4c-0.2,0.1-0.3,0.2-0.5,0.2
		c-0.2,0-0.4,0.1-0.6,0.1C85.4,31,85.1,31,85.1,31z"/>
	<path class="st0" d="M88.9,30.7c-0.3-0.1-0.5-0.4-0.6-0.6c-0.1-0.3-0.2-0.6-0.2-1v-0.7c0-0.4,0.1-0.7,0.2-1s0.3-0.5,0.6-0.6
		c0.3-0.1,0.6-0.2,0.9-0.2c0.4,0,0.7,0.1,0.9,0.2c0.3,0.1,0.5,0.4,0.6,0.6c0.1,0.3,0.2,0.6,0.2,1v0.7c0,0.4-0.1,0.7-0.2,1
		c-0.1,0.3-0.3,0.5-0.6,0.6c-0.3,0.1-0.6,0.2-0.9,0.2C89.5,31,89.2,30.9,88.9,30.7z M90.7,30.1c0.2-0.2,0.3-0.5,0.3-1v-0.7
		c0-0.4-0.1-0.7-0.3-0.9s-0.5-0.3-0.9-0.3c-0.4,0-0.7,0.1-0.9,0.3c-0.2,0.2-0.3,0.5-0.3,0.9v0.7c0,0.4,0.1,0.7,0.3,1
		c0.2,0.2,0.5,0.3,0.9,0.3C90.2,30.4,90.5,30.3,90.7,30.1z"/>
	<path class="st0" d="M93.9,31c0,0-0.1,0-0.3-0.1c-0.2,0-0.4-0.1-0.6-0.2c-0.2-0.1-0.4-0.2-0.5-0.3l0.3-0.4c0.2,0.2,0.5,0.3,0.7,0.4
		c0.2,0.1,0.5,0.1,0.7,0.1c0.4,0,0.7-0.1,0.9-0.2c0.2-0.1,0.3-0.3,0.3-0.6c0-0.2-0.1-0.3-0.2-0.4c-0.1-0.1-0.2-0.2-0.4-0.2
		c-0.2,0-0.4-0.1-0.7-0.1c0,0-0.1,0-0.1,0c0,0-0.1,0-0.1,0c0,0,0,0,0,0c0,0,0,0,0,0c-0.3,0-0.5-0.1-0.7-0.1
		c-0.2-0.1-0.3-0.2-0.5-0.3c-0.1-0.2-0.2-0.4-0.2-0.7c0-0.3,0.1-0.5,0.2-0.7c0.1-0.2,0.3-0.3,0.6-0.4c0.3-0.1,0.6-0.2,0.9-0.2
		c0.2,0,0.4,0,0.6,0.1s0.4,0.1,0.5,0.2c0.2,0.1,0.3,0.2,0.5,0.3l-0.3,0.4c-0.2-0.1-0.4-0.2-0.6-0.3c-0.2-0.1-0.4-0.1-0.6-0.1
		c-0.4,0-0.6,0.1-0.8,0.2c-0.2,0.1-0.3,0.3-0.3,0.6c0,0.2,0.1,0.3,0.2,0.4c0.1,0.1,0.2,0.1,0.4,0.2s0.4,0,0.7,0.1c0,0,0,0,0,0
		c0,0,0,0,0,0c0,0,0,0,0,0c0,0,0,0,0,0c0.3,0,0.6,0.1,0.8,0.1c0.2,0.1,0.4,0.2,0.5,0.3s0.2,0.4,0.2,0.7c0,0.3-0.1,0.5-0.2,0.7
		s-0.4,0.3-0.6,0.4c-0.3,0.1-0.6,0.2-1,0.2C94.1,31,93.9,31,93.9,31z"/>
	<path class="st0" d="M96.9,26.6h1.9v0.5h-1.9V26.6z M97.5,30.6c-0.2-0.2-0.2-0.5-0.2-0.8v-4.4h0.6v4.4c0,0.2,0,0.3,0.1,0.4
		s0.2,0.1,0.4,0.1h0.4v0.5h-0.5C97.9,30.9,97.7,30.8,97.5,30.6z"/>
	<path class="st0" d="M100.1,30.6c-0.3-0.2-0.4-0.6-0.4-1c0-0.4,0.1-0.7,0.4-0.9s0.6-0.3,1.1-0.3h1.4l0.1,0.6h-1.5
		c-0.3,0-0.5,0.1-0.6,0.2c-0.1,0.1-0.2,0.3-0.2,0.5c0,0.2,0.1,0.4,0.3,0.6c0.2,0.1,0.5,0.2,0.8,0.2c0.4,0,0.7,0,0.9-0.1
		c0.2-0.1,0.3-0.2,0.3-0.3l0.1,0.6c-0.1,0.1-0.2,0.2-0.3,0.2c-0.1,0.1-0.3,0.1-0.5,0.1c-0.2,0-0.4,0-0.6,0
		C100.8,31,100.4,30.8,100.1,30.6z M102.5,28.2c0-0.3-0.1-0.6-0.3-0.8s-0.4-0.3-0.8-0.3c-0.2,0-0.4,0-0.6,0.1
		c-0.2,0.1-0.4,0.2-0.5,0.3l-0.4-0.3c0.2-0.2,0.4-0.3,0.6-0.5c0.3-0.1,0.6-0.2,0.9-0.2c0.4,0,0.7,0.1,0.9,0.2s0.4,0.3,0.6,0.5
		c0.1,0.2,0.2,0.5,0.2,0.9v2.7h-0.6V28.2z"/>
	<path class="st0" d="M104.4,26.6h0.6v4.3h-0.6V26.6z M107.2,28.3c0-0.4-0.1-0.7-0.3-0.9c-0.2-0.2-0.5-0.3-0.8-0.3
		c-0.4,0-0.6,0.1-0.8,0.3s-0.3,0.4-0.3,0.8l-0.1-0.8c0.2-0.3,0.4-0.5,0.6-0.6c0.3-0.1,0.5-0.2,0.9-0.2c0.5,0,0.8,0.2,1.1,0.5
		c0.3,0.3,0.4,0.7,0.4,1.3v2.6h-0.6V28.3z"/>
	<path class="st0" d="M110.3,31c0,0-0.1-0.1-0.4-0.2s-0.5-0.4-0.6-0.7s-0.2-0.6-0.2-1v-0.5c0-0.4,0.1-0.8,0.2-1.1
		c0.1-0.3,0.3-0.5,0.6-0.7s0.6-0.2,1-0.2c0.4,0,0.7,0.1,0.9,0.2s0.4,0.4,0.6,0.7c0.1,0.3,0.2,0.6,0.2,1.1V29h-3.1v-0.5h2.5v0
		c0-0.4-0.1-0.7-0.3-1c-0.2-0.2-0.5-0.3-0.8-0.3c-0.4,0-0.7,0.1-0.9,0.4c-0.2,0.2-0.3,0.6-0.3,1v0.5c0,0.4,0.1,0.8,0.3,1
		c0.2,0.2,0.6,0.4,1,0.4c0.2,0,0.4,0,0.6-0.1c0.2-0.1,0.4-0.2,0.5-0.3l0.4,0.4c-0.2,0.2-0.4,0.4-0.7,0.5c-0.3,0.1-0.5,0.2-0.8,0.2
		C110.5,31,110.3,31,110.3,31z"/>
	<path class="st0" d="M113.6,26.6h0.6v4.3h-0.6V26.6z M115.8,27.2c-0.1,0-0.3-0.1-0.5-0.1c-0.4,0-0.6,0.1-0.8,0.3s-0.3,0.5-0.3,0.8
		l-0.1-0.8c0.2-0.3,0.4-0.5,0.6-0.6c0.3-0.1,0.5-0.2,0.8-0.2c0.2,0,0.4,0,0.5,0.1c0.2,0.1,0.3,0.1,0.4,0.2l-0.4,0.5
		C116,27.3,115.9,27.2,115.8,27.2z"/>
	<path class="st0" d="M117.4,30.6c-0.3-0.2-0.4-0.6-0.4-1c0-0.4,0.1-0.7,0.4-0.9c0.3-0.2,0.6-0.3,1.1-0.3h1.4l0.1,0.6h-1.5
		c-0.3,0-0.5,0.1-0.6,0.2c-0.1,0.1-0.2,0.3-0.2,0.5c0,0.2,0.1,0.4,0.3,0.6s0.5,0.2,0.8,0.2c0.4,0,0.7,0,0.9-0.1
		c0.2-0.1,0.3-0.2,0.3-0.3l0.1,0.6c-0.1,0.1-0.2,0.2-0.3,0.2c-0.1,0.1-0.3,0.1-0.5,0.1c-0.2,0-0.4,0-0.6,0
		C118.1,31,117.7,30.8,117.4,30.6z M119.8,28.2c0-0.3-0.1-0.6-0.3-0.8c-0.2-0.2-0.4-0.3-0.8-0.3c-0.2,0-0.4,0-0.6,0.1
		c-0.2,0.1-0.4,0.2-0.5,0.3l-0.4-0.3c0.2-0.2,0.4-0.3,0.6-0.5c0.3-0.1,0.6-0.2,0.9-0.2c0.4,0,0.7,0.1,0.9,0.2
		c0.3,0.1,0.4,0.3,0.6,0.5c0.1,0.2,0.2,0.5,0.2,0.9v2.7h-0.6V28.2z"/>
</g>
</svg>
