<?xml version="1.0" encoding="UTF-8"?> <!-- Generator: Adobe Illustrator 24.1.1, SVG Export Plug-In --> <svg xmlns="http://www.w3.org/2000/svg" xmlns:xlink="http://www.w3.org/1999/xlink" version="1.1" x="0px" y="0px" width="122.13px" height="32.9px" viewBox="0 0 122.13 32.9" style="enable-background:new 0 0 122.13 32.9;" xml:space="preserve"> <style type="text/css"> .st0{fill:#FFFFFF;} </style> <defs> </defs> <g> <g> <path class="st0" d="M43.7,27.14v3.85h-0.44v-3.85h-0.57v-0.33h0.57v-0.9c0-0.33,0.09-0.6,0.26-0.8c0.17-0.2,0.42-0.3,0.75-0.3 h0.38v0.39h-0.3c-0.43,0-0.64,0.23-0.64,0.7v0.91h0.94v0.33H43.7z"></path> <path class="st0" d="M47.06,24.81h0.55v0.54h-0.55V24.81z M47.11,26.8h0.44v4.19h-0.44V26.8z"></path> <path class="st0" d="M51.7,30.99c-0.32,0-0.56-0.1-0.74-0.3c-0.18-0.2-0.26-0.46-0.26-0.79v-2.76h-0.57v-0.33h0.57v-1.33h0.44 v1.33h0.94v0.33h-0.94v2.77c0,0.46,0.21,0.69,0.64,0.69h0.3v0.39H51.7z"></path> <path class="st0" d="M57.53,30.99V28.4c0-0.83-0.38-1.25-1.15-1.25c-0.37,0-0.66,0.11-0.87,0.33c-0.21,0.22-0.31,0.53-0.31,0.92 v2.59h-0.44v-4.18h0.44v0.49c0.31-0.36,0.72-0.55,1.23-0.55c0.46,0,0.83,0.14,1.12,0.41c0.28,0.27,0.42,0.66,0.42,1.15v2.67H57.53 z"></path> <path class="st0" d="M61.15,28.99c0,0.53,0.12,0.94,0.35,1.23c0.23,0.28,0.57,0.43,1.01,0.43c0.43,0,0.82-0.17,1.15-0.51 l0.33,0.26c-0.22,0.22-0.44,0.38-0.67,0.49c-0.23,0.1-0.51,0.16-0.84,0.16c-0.58,0-1.02-0.18-1.32-0.55 c-0.3-0.37-0.45-0.9-0.45-1.59c0-0.68,0.15-1.2,0.44-1.58c0.29-0.38,0.7-0.56,1.23-0.56c0.52,0,0.93,0.18,1.23,0.54 c0.3,0.36,0.45,0.86,0.45,1.49v0.2H61.15z M63.47,27.85c-0.09-0.22-0.23-0.39-0.43-0.52c-0.19-0.12-0.41-0.19-0.65-0.19 c-0.24,0-0.46,0.06-0.65,0.19c-0.19,0.12-0.33,0.28-0.4,0.46c-0.08,0.18-0.12,0.32-0.14,0.42c-0.02,0.1-0.03,0.24-0.03,0.43h2.46 c0-0.18-0.01-0.32-0.03-0.42C63.56,28.12,63.52,28,63.47,27.85"></path> <path class="st0" d="M68.12,31.04c-0.71,0-1.27-0.2-1.69-0.6l0.3-0.3c0.32,0.34,0.78,0.51,1.36,0.51c0.83,0,1.25-0.28,1.25-0.85 c0-0.42-0.27-0.65-0.79-0.7l-0.69-0.06c-0.41,0-0.72-0.1-0.93-0.29c-0.21-0.2-0.32-0.46-0.32-0.8c0-0.36,0.14-0.65,0.41-0.87 c0.27-0.21,0.64-0.32,1.09-0.32c0.29,0,0.56,0.04,0.81,0.11c0.25,0.08,0.47,0.18,0.66,0.33l-0.29,0.29 c-0.32-0.23-0.71-0.35-1.16-0.35c-0.34,0-0.6,0.07-0.79,0.21c-0.18,0.14-0.28,0.34-0.28,0.6c0,0.41,0.28,0.65,0.85,0.7l0.67,0.06 c0.39,0.03,0.69,0.13,0.9,0.28c0.21,0.16,0.31,0.42,0.31,0.8c0,0.37-0.15,0.67-0.45,0.9C69.03,30.93,68.63,31.04,68.12,31.04"></path> <path class="st0" d="M73.75,31.04c-0.71,0-1.27-0.2-1.69-0.6l0.31-0.3c0.32,0.34,0.78,0.51,1.36,0.51c0.83,0,1.25-0.28,1.25-0.85 c0-0.42-0.26-0.65-0.79-0.7l-0.69-0.06c-0.41,0-0.72-0.1-0.93-0.29c-0.21-0.2-0.32-0.46-0.32-0.8c0-0.36,0.14-0.65,0.41-0.87 c0.27-0.21,0.64-0.32,1.09-0.32c0.29,0,0.56,0.04,0.81,0.11c0.25,0.08,0.47,0.18,0.66,0.33l-0.29,0.29 c-0.32-0.23-0.71-0.35-1.17-0.35c-0.34,0-0.6,0.07-0.79,0.21c-0.18,0.14-0.28,0.34-0.28,0.6c0,0.41,0.28,0.65,0.85,0.7l0.67,0.06 c0.39,0.03,0.69,0.13,0.9,0.28c0.21,0.16,0.32,0.42,0.32,0.8c0,0.37-0.15,0.67-0.45,0.9C74.67,30.93,74.26,31.04,73.75,31.04"></path> <rect x="80.1" y="23.3" class="st0" width="0.32" height="9.6"></rect> <g> <path class="st0" d="M87.81,30.66c-0.1,0.08-0.2,0.15-0.31,0.19c-0.1,0.05-0.21,0.08-0.33,0.1c-0.12,0.02-0.24,0.03-0.38,0.03 c-0.28,0-0.53-0.05-0.75-0.14c-0.22-0.1-0.41-0.23-0.57-0.41c-0.15-0.18-0.27-0.4-0.35-0.66C85.04,29.51,85,29.22,85,28.9 c0-0.32,0.04-0.61,0.12-0.87c0.08-0.26,0.2-0.48,0.35-0.66c0.15-0.18,0.34-0.32,0.57-0.41c0.22-0.1,0.47-0.14,0.75-0.14 c0.14,0,0.27,0.01,0.38,0.03c0.12,0.02,0.23,0.05,0.33,0.1c0.1,0.05,0.21,0.11,0.31,0.19c0.1,0.08,0.21,0.18,0.32,0.3l-0.3,0.27 c-0.17-0.19-0.34-0.33-0.49-0.4c-0.15-0.08-0.34-0.11-0.55-0.11c-0.23,0-0.44,0.05-0.62,0.14c-0.18,0.09-0.34,0.23-0.46,0.41 c-0.1,0.15-0.17,0.31-0.22,0.49c-0.04,0.18-0.06,0.4-0.06,0.68c0,0.28,0.02,0.5,0.06,0.68c0.04,0.18,0.11,0.34,0.22,0.49 c0.12,0.18,0.28,0.32,0.46,0.41c0.18,0.09,0.39,0.14,0.62,0.14c0.11,0,0.21-0.01,0.3-0.03c0.09-0.02,0.18-0.04,0.26-0.08 c0.08-0.04,0.16-0.09,0.24-0.16c0.08-0.07,0.16-0.15,0.25-0.24l0.3,0.27C88.02,30.48,87.91,30.58,87.81,30.66z"></path> <path class="st0" d="M92.78,30.93v-2.53c0-0.39-0.1-0.7-0.29-0.9c-0.19-0.21-0.47-0.31-0.84-0.31c-0.37,0-0.65,0.11-0.85,0.32 c-0.2,0.21-0.3,0.51-0.3,0.9v2.53h-0.43v-6.01h0.43v2.42c0.3-0.35,0.7-0.53,1.2-0.53c0.47,0,0.83,0.14,1.1,0.41 c0.27,0.27,0.4,0.64,0.4,1.11v2.6H92.78z"></path> <path class="st0" d="M95.42,25.45v-0.53h0.53v0.53H95.42z M95.47,30.93v-4.07h0.43v4.07H95.47z"></path> <path class="st0" d="M100.79,30.66c-0.1,0.08-0.2,0.15-0.31,0.19c-0.1,0.05-0.21,0.08-0.33,0.1c-0.12,0.02-0.24,0.03-0.38,0.03 c-0.28,0-0.53-0.05-0.75-0.14c-0.22-0.1-0.41-0.23-0.57-0.41c-0.15-0.18-0.27-0.4-0.35-0.66c-0.08-0.26-0.12-0.55-0.12-0.87 c0-0.32,0.04-0.61,0.12-0.87c0.08-0.26,0.2-0.48,0.35-0.66c0.15-0.18,0.34-0.32,0.57-0.41c0.22-0.1,0.47-0.14,0.75-0.14 c0.14,0,0.27,0.01,0.38,0.03c0.12,0.02,0.23,0.05,0.33,0.1c0.1,0.05,0.21,0.11,0.31,0.19c0.1,0.08,0.21,0.18,0.32,0.3l-0.3,0.27 c-0.17-0.19-0.34-0.33-0.49-0.4c-0.15-0.08-0.34-0.11-0.55-0.11c-0.23,0-0.44,0.05-0.62,0.14c-0.18,0.09-0.34,0.23-0.46,0.41 c-0.1,0.15-0.17,0.31-0.22,0.49c-0.04,0.18-0.06,0.4-0.06,0.68c0,0.28,0.02,0.5,0.06,0.68c0.04,0.18,0.11,0.34,0.22,0.49 c0.12,0.18,0.28,0.32,0.46,0.41c0.18,0.09,0.39,0.14,0.62,0.14c0.11,0,0.21-0.01,0.3-0.03c0.09-0.02,0.18-0.04,0.26-0.08 c0.08-0.04,0.16-0.09,0.24-0.16c0.08-0.07,0.16-0.15,0.25-0.24l0.3,0.27C101,30.48,100.89,30.58,100.79,30.66z"></path> <path class="st0" d="M105.71,30.93v-0.48c-0.3,0.35-0.7,0.53-1.2,0.53c-0.45,0-0.81-0.13-1.08-0.39 c-0.28-0.27-0.42-0.65-0.42-1.13v-2.6h0.43v2.53c0,0.39,0.1,0.7,0.29,0.9c0.19,0.21,0.47,0.31,0.84,0.31 c0.37,0,0.65-0.11,0.85-0.32c0.2-0.21,0.3-0.51,0.3-0.9v-2.53h0.43v4.07H105.71z"></path> <path class="st0" d="M110.74,27.51c-0.12-0.12-0.24-0.21-0.35-0.25c-0.11-0.05-0.25-0.07-0.42-0.07c-0.17,0-0.33,0.03-0.46,0.1 c-0.14,0.07-0.25,0.16-0.34,0.27c-0.09,0.11-0.16,0.24-0.21,0.39c-0.05,0.15-0.07,0.31-0.07,0.47v2.51h-0.43v-4.07h0.43v0.54 c0.12-0.19,0.29-0.34,0.5-0.44c0.22-0.1,0.45-0.15,0.69-0.15c0.2,0,0.37,0.03,0.53,0.08c0.15,0.06,0.31,0.16,0.45,0.3 L110.74,27.51z"></path> <path class="st0" d="M112.48,28.99c0,0.52,0.11,0.92,0.34,1.2c0.23,0.28,0.55,0.42,0.99,0.42c0.24,0,0.45-0.04,0.61-0.11 c0.17-0.08,0.34-0.2,0.51-0.38l0.32,0.25c-0.1,0.1-0.2,0.19-0.31,0.27c-0.1,0.08-0.21,0.14-0.33,0.2 c-0.12,0.05-0.24,0.09-0.38,0.12c-0.14,0.02-0.29,0.04-0.46,0.04c-0.56,0-0.99-0.18-1.29-0.53c-0.3-0.35-0.44-0.87-0.44-1.55 c0-0.66,0.14-1.17,0.43-1.54c0.29-0.37,0.69-0.55,1.2-0.55c0.51,0,0.91,0.17,1.2,0.52c0.29,0.35,0.43,0.84,0.43,1.46v0.19H112.48 z M114.86,28.39c-0.01-0.07-0.01-0.13-0.03-0.19c-0.01-0.05-0.03-0.11-0.04-0.16c-0.02-0.05-0.04-0.11-0.06-0.17 c-0.09-0.21-0.23-0.38-0.42-0.5c-0.19-0.12-0.4-0.18-0.64-0.18s-0.45,0.06-0.64,0.18c-0.19,0.12-0.33,0.29-0.42,0.5 c-0.03,0.06-0.05,0.12-0.06,0.17c-0.01,0.05-0.03,0.11-0.04,0.16c-0.01,0.05-0.02,0.12-0.03,0.19c-0.01,0.07-0.01,0.15-0.02,0.25 h2.4C114.88,28.55,114.87,28.46,114.86,28.39z"></path> <path class="st0" d="M120.33,29.77c-0.06,0.29-0.2,0.55-0.41,0.76c-0.15,0.15-0.31,0.26-0.5,0.33c-0.19,0.08-0.4,0.11-0.63,0.11 c-0.46,0-0.83-0.15-1.13-0.45c-0.21-0.21-0.35-0.47-0.41-0.76c-0.06-0.29-0.09-0.59-0.09-0.88c0-0.29,0.03-0.59,0.09-0.88 c0.06-0.29,0.2-0.55,0.41-0.76c0.3-0.3,0.68-0.45,1.13-0.45c0.23,0,0.44,0.04,0.63,0.11c0.19,0.08,0.36,0.19,0.5,0.33 c0.21,0.21,0.35,0.47,0.41,0.76c0.06,0.29,0.09,0.59,0.09,0.88C120.42,29.19,120.39,29.48,120.33,29.77z M119.98,28.53 c-0.01-0.12-0.02-0.25-0.05-0.37c-0.03-0.12-0.06-0.24-0.11-0.34c-0.05-0.11-0.11-0.2-0.2-0.29c-0.11-0.11-0.24-0.2-0.38-0.26 c-0.14-0.06-0.3-0.09-0.46-0.09c-0.33,0-0.61,0.12-0.84,0.35c-0.08,0.08-0.15,0.18-0.2,0.29c-0.05,0.11-0.08,0.22-0.11,0.34 c-0.03,0.12-0.04,0.24-0.05,0.37c-0.01,0.12-0.01,0.24-0.01,0.36c0,0.12,0,0.24,0.01,0.36c0.01,0.12,0.02,0.25,0.05,0.37 c0.03,0.12,0.06,0.24,0.11,0.34c0.05,0.11,0.11,0.2,0.2,0.29c0.23,0.23,0.51,0.35,0.84,0.35c0.16,0,0.32-0.03,0.46-0.09 c0.14-0.06,0.27-0.14,0.38-0.26c0.08-0.08,0.15-0.18,0.2-0.29c0.05-0.11,0.08-0.22,0.11-0.34c0.03-0.12,0.04-0.24,0.05-0.37 c0.01-0.12,0.01-0.24,0.01-0.36C119.99,28.78,119.99,28.66,119.98,28.53z"></path> </g> </g> <g> <path class="st0" d="M32.55,1.51c3.57,0,6.58,3.01,6.58,6.58v10.85c0,0.43,0.33,0.78,0.73,0.78c0.44,0,0.78-0.33,0.78-0.78V7.95 c0.04-1.65,0.76-3.29,1.97-4.5c1.25-1.25,2.88-1.94,4.61-1.94h1.65c3.54,0,6.53,3.01,6.53,6.58v10.85c0,0.46,0.4,0.78,0.78,0.78 c0.44,0,0.78-0.33,0.78-0.78V8.04V7.99c-0.04-2.13-0.91-4.13-2.45-5.65C52.97,0.83,50.97,0,48.87,0h-1.65 c-1.41,0-2.73,0.35-3.94,1.03c-1.19,0.68-2.2,1.65-3.02,2.89l0,0l0,0L39.86,4.6l-0.39-0.67C38.05,1.5,35.4,0,32.55,0H30.9 c-2.12,0-4.12,0.84-5.66,2.37c-1.52,1.52-2.38,3.51-2.43,5.62l0,10.94c0,0.44,0.33,0.78,0.78,0.78c0.4,0,0.73-0.35,0.73-0.78V7.95 c0.09-3.49,3.1-6.44,6.58-6.44H32.55z"></path> <path class="st0" d="M70.38,19.71c2.13,0,4.15-0.85,5.69-2.4c1.54-1.54,2.39-3.57,2.39-5.69V8.09c0-2.13-0.85-4.15-2.39-5.69 S72.5,0,70.38,0h-3.54c-2.13,0-4.15,0.85-5.69,2.39c-1.54,1.54-2.39,3.57-2.39,5.69v3.54c0,2.13,0.85,4.15,2.39,5.69 c1.54,1.54,3.57,2.4,5.69,2.4H70.38z M62.22,16.23c-1.24-1.25-1.96-2.93-1.96-4.61V8.09c0-1.74,0.71-3.4,1.99-4.66 c1.24-1.22,2.92-1.92,4.59-1.92h3.54c3.56,0,6.58,3.01,6.58,6.58v3.54c0,3.57-3.01,6.58-6.58,6.58h-3.54 C65.12,18.2,63.48,17.5,62.22,16.23z"></path> <path class="st0" d="M92.58,19.71c2.13,0,4.15-0.85,5.69-2.4c1.54-1.54,2.39-3.57,2.39-5.69V8.09c0-2.13-0.85-4.15-2.39-5.69 C96.72,0.85,94.7,0,92.58,0h-3.54c-2.13,0-4.15,0.85-5.69,2.39c-1.54,1.54-2.39,3.57-2.39,5.69v3.54c0,2.13,0.85,4.15,2.39,5.69 c1.54,1.54,3.57,2.4,5.69,2.4H92.58z M84.42,16.23c-1.24-1.25-1.95-2.93-1.95-4.61V8.09c0-1.74,0.71-3.4,1.99-4.66 c1.24-1.22,2.92-1.92,4.59-1.92h3.54c3.57,0,6.58,3.01,6.58,6.58v3.54c0,3.57-3.01,6.58-6.58,6.58h-3.54 C87.32,18.2,85.68,17.5,84.42,16.23z"></path> <path class="st0" d="M108.13,17.33c0.64,1.47,2,2.38,3.57,2.38c1.58,0,2.93-0.91,3.52-2.38l6.84-16.34 c0.06-0.08,0.06-0.2,0.06-0.3c0-0.38-0.32-0.69-0.73-0.69c-0.23,0-0.52,0.17-0.59,0.41l-6.84,16.4c-0.45,0.94-1.28,1.48-2.27,1.48 c-1.05,0-1.86-0.53-2.27-1.48L102.58,0.4l0,0l0,0c-0.11-0.22-0.39-0.4-0.63-0.4c-0.46,0-0.73,0.35-0.73,0.69 c0,0.1,0,0.22,0.06,0.3L108.13,17.33z"></path> <path class="st0" d="M16.18,19.15c0.9-0.4,1.7-0.95,2.37-1.64c0.67-0.68,1.22-1.48,1.62-2.37c0.4-0.89,0.61-1.84,0.61-2.83V7.5 c0-1.04-0.21-2.03-0.62-2.92v0c-0.41-0.89-0.97-1.68-1.65-2.35c-0.68-0.67-1.49-1.21-2.39-1.59c-0.9-0.38-1.85-0.57-2.8-0.57H2.4 c-0.68,0-1.26,0.25-1.72,0.74C0.23,1.29,0,1.85,0,2.46v14.91c0,0.68,0.24,1.25,0.73,1.71c0.48,0.45,1.04,0.69,1.67,0.69H13.3 C14.31,19.76,15.27,19.56,16.18,19.15z M18.81,14.5c-0.34,0.76-0.81,1.44-1.38,2.03c-0.57,0.58-1.26,1.05-2.02,1.39 c-0.76,0.34-1.58,0.51-2.43,0.51H3.17c-0.46,0-0.85-0.16-1.21-0.5c-0.35-0.33-0.52-0.73-0.52-1.23V3.04c0-0.44,0.16-0.83,0.5-1.19 c0.33-0.36,0.73-0.53,1.22-0.53h9.81c0.81,0,1.61,0.16,2.38,0.49c0.77,0.32,1.45,0.78,2.04,1.35c0.58,0.57,1.06,1.25,1.41,2.01 c0.35,0.75,0.53,1.59,0.53,2.47v4.47C19.33,12.94,19.15,13.75,18.81,14.5z"></path> </g> </g> </svg> 