<!-- Generator: Adobe Illustrator 24.1.1, SVG Export Plug-In  -->
<svg version="1.1" xmlns="http://www.w3.org/2000/svg" xmlns:xlink="http://www.w3.org/1999/xlink" x="0px" y="0px"
	 width="122.35px" height="32.21px" viewBox="0 0 122.35 32.21" style="enable-background:new 0 0 122.35 32.21;"
	 xml:space="preserve">
<style type="text/css">
	.st0{fill:#FFFFFF;}
</style>
<defs>
</defs>
<g>
	<g>
		<path class="st0" d="M44.02,26.45v3.85h-0.44v-3.85H43v-0.33h0.57v-0.9c0-0.33,0.09-0.6,0.26-0.8s0.42-0.3,0.75-0.3h0.38v0.39
			h-0.3c-0.43,0-0.64,0.23-0.64,0.7v0.91h0.94v0.33H44.02z"/>
		<path class="st0" d="M47.38,24.12h0.55v0.54h-0.55V24.12z M47.43,26.11h0.44v4.19h-0.44V26.11z"/>
		<path class="st0" d="M52.02,30.3c-0.32,0-0.56-0.1-0.74-0.3c-0.18-0.2-0.26-0.46-0.26-0.79v-2.76h-0.57v-0.33h0.57v-1.33h0.44
			v1.33h0.94v0.33h-0.94v2.77c0,0.46,0.21,0.69,0.64,0.69h0.3v0.39H52.02z"/>
		<path class="st0" d="M57.85,30.3v-2.59c0-0.83-0.38-1.25-1.15-1.25c-0.37,0-0.66,0.11-0.87,0.33c-0.21,0.22-0.31,0.53-0.31,0.92
			v2.59h-0.44v-4.18h0.44v0.49c0.31-0.36,0.72-0.55,1.23-0.55c0.46,0,0.83,0.14,1.12,0.41c0.28,0.27,0.42,0.66,0.42,1.15v2.67H57.85
			z"/>
		<path class="st0" d="M61.47,28.3c0,0.53,0.12,0.94,0.35,1.23c0.23,0.28,0.57,0.43,1.01,0.43c0.43,0,0.82-0.17,1.15-0.51l0.33,0.26
			c-0.22,0.22-0.44,0.38-0.67,0.49c-0.23,0.1-0.51,0.16-0.84,0.16c-0.58,0-1.02-0.18-1.32-0.55c-0.3-0.37-0.45-0.9-0.45-1.59
			c0-0.68,0.15-1.2,0.44-1.58c0.29-0.38,0.7-0.56,1.23-0.56c0.52,0,0.93,0.18,1.23,0.54c0.3,0.36,0.45,0.86,0.45,1.49v0.2H61.47z
			 M63.79,27.16c-0.09-0.22-0.23-0.39-0.43-0.52c-0.19-0.12-0.41-0.19-0.65-0.19c-0.24,0-0.46,0.06-0.65,0.19
			c-0.19,0.12-0.33,0.28-0.4,0.46c-0.08,0.18-0.12,0.32-0.14,0.42c-0.02,0.1-0.03,0.24-0.03,0.43h2.46c0-0.18-0.01-0.32-0.03-0.42
			C63.88,27.42,63.84,27.3,63.79,27.16"/>
		<path class="st0" d="M68.44,30.34c-0.71,0-1.27-0.2-1.69-0.6l0.3-0.3c0.32,0.34,0.78,0.51,1.36,0.51c0.83,0,1.25-0.28,1.25-0.85
			c0-0.42-0.27-0.65-0.79-0.7l-0.69-0.06c-0.41,0-0.72-0.1-0.93-0.29c-0.21-0.2-0.32-0.46-0.32-0.8c0-0.36,0.14-0.65,0.41-0.87
			c0.27-0.21,0.64-0.32,1.09-0.32c0.29,0,0.56,0.04,0.81,0.11c0.25,0.08,0.47,0.18,0.66,0.33L69.6,26.8
			c-0.32-0.23-0.71-0.35-1.16-0.35c-0.34,0-0.6,0.07-0.79,0.21c-0.18,0.14-0.28,0.34-0.28,0.6c0,0.41,0.28,0.65,0.85,0.7l0.67,0.06
			c0.39,0.03,0.69,0.13,0.9,0.28c0.21,0.16,0.31,0.42,0.31,0.8c0,0.37-0.15,0.67-0.45,0.9C69.35,30.23,68.95,30.34,68.44,30.34"/>
		<path class="st0" d="M74.07,30.34c-0.71,0-1.27-0.2-1.69-0.6l0.31-0.3c0.32,0.34,0.78,0.51,1.36,0.51c0.83,0,1.25-0.28,1.25-0.85
			c0-0.42-0.26-0.65-0.79-0.7l-0.69-0.06c-0.41,0-0.72-0.1-0.93-0.29c-0.21-0.2-0.32-0.46-0.32-0.8c0-0.36,0.14-0.65,0.41-0.87
			c0.27-0.21,0.64-0.32,1.09-0.32c0.29,0,0.56,0.04,0.81,0.11c0.25,0.08,0.47,0.18,0.66,0.33l-0.29,0.29
			c-0.32-0.23-0.71-0.35-1.17-0.35c-0.34,0-0.6,0.07-0.79,0.21c-0.18,0.14-0.28,0.34-0.28,0.6c0,0.41,0.28,0.65,0.85,0.7l0.67,0.06
			c0.39,0.03,0.69,0.13,0.9,0.28c0.21,0.16,0.32,0.42,0.32,0.8c0,0.37-0.15,0.67-0.45,0.9C74.99,30.23,74.58,30.34,74.07,30.34"/>
		<rect x="80.42" y="22.61" class="st0" width="0.32" height="9.6"/>
		<g>
			<path class="st0" d="M86.22,30.12c-0.32,0-0.56-0.09-0.72-0.28c-0.16-0.19-0.23-0.43-0.23-0.74v-4.81h0.42v4.8
				c0,0.22,0.04,0.39,0.13,0.5c0.08,0.11,0.24,0.16,0.48,0.16h0.29v0.37H86.22z"/>
			<path class="st0" d="M89.95,30.12v-0.39c-0.17,0.17-0.34,0.29-0.52,0.35c-0.18,0.06-0.41,0.09-0.68,0.09
				c-0.29,0-0.53-0.03-0.71-0.08c-0.18-0.05-0.33-0.15-0.45-0.28c-0.09-0.09-0.16-0.21-0.21-0.34c-0.05-0.14-0.07-0.28-0.07-0.43
				c0-0.36,0.12-0.64,0.36-0.84c0.24-0.2,0.58-0.3,1.01-0.3h1.28v-0.44c0-0.32-0.08-0.56-0.25-0.72c-0.17-0.16-0.46-0.25-0.86-0.25
				c-0.28,0-0.5,0.04-0.66,0.11c-0.16,0.08-0.3,0.2-0.43,0.38l-0.3-0.26c0.17-0.23,0.36-0.39,0.58-0.48
				c0.22-0.08,0.49-0.13,0.81-0.13c0.52,0,0.91,0.11,1.16,0.34c0.25,0.22,0.37,0.54,0.37,0.96v2.7H89.95z M89.95,28.23h-1.23
				c-0.67,0-1.01,0.26-1.01,0.79c0,0.26,0.08,0.46,0.25,0.58c0.16,0.13,0.43,0.19,0.79,0.19c0.18,0,0.35-0.02,0.52-0.05
				c0.17-0.03,0.32-0.12,0.46-0.25c0.15-0.14,0.22-0.39,0.22-0.75V28.23z"/>
			<path class="st0" d="M94.29,29.85c-0.29,0.21-0.67,0.32-1.16,0.32c-0.34,0-0.65-0.05-0.9-0.14c-0.26-0.09-0.49-0.23-0.69-0.43
				l0.29-0.29c0.31,0.32,0.74,0.48,1.29,0.48c0.39,0,0.68-0.07,0.88-0.2c0.2-0.13,0.3-0.33,0.3-0.6c0-0.21-0.06-0.36-0.18-0.47
				c-0.12-0.1-0.31-0.17-0.57-0.2l-0.65-0.06c-0.79-0.07-1.18-0.41-1.18-1.03c0-0.34,0.13-0.62,0.39-0.82c0.26-0.2,0.6-0.3,1.04-0.3
				c0.27,0,0.53,0.04,0.77,0.11c0.24,0.08,0.44,0.18,0.62,0.31l-0.28,0.28c-0.31-0.22-0.67-0.34-1.11-0.34
				c-0.33,0-0.58,0.07-0.75,0.2c-0.17,0.13-0.26,0.32-0.26,0.56c0,0.21,0.06,0.36,0.19,0.46c0.13,0.1,0.33,0.17,0.61,0.2l0.64,0.06
				c0.16,0.02,0.32,0.04,0.46,0.08c0.14,0.04,0.26,0.09,0.36,0.17c0.1,0.08,0.18,0.18,0.24,0.31c0.06,0.13,0.09,0.28,0.09,0.47
				C94.72,29.36,94.58,29.64,94.29,29.85z"/>
			<path class="st0" d="M100.56,29.85c-0.1,0.08-0.2,0.14-0.3,0.19c-0.1,0.05-0.21,0.08-0.32,0.1c-0.11,0.02-0.24,0.03-0.37,0.03
				c-0.27,0-0.51-0.05-0.72-0.14c-0.22-0.09-0.4-0.23-0.55-0.4c-0.15-0.17-0.26-0.39-0.34-0.64c-0.08-0.25-0.12-0.53-0.12-0.84
				s0.04-0.59,0.12-0.84c0.08-0.25,0.19-0.46,0.34-0.64c0.15-0.17,0.33-0.31,0.55-0.4c0.22-0.09,0.46-0.14,0.72-0.14
				c0.14,0,0.26,0.01,0.37,0.03c0.11,0.02,0.22,0.05,0.32,0.1c0.1,0.05,0.2,0.11,0.3,0.19c0.1,0.08,0.2,0.18,0.31,0.29l-0.29,0.26
				c-0.17-0.19-0.33-0.32-0.48-0.39c-0.15-0.07-0.33-0.11-0.54-0.11c-0.22,0-0.42,0.04-0.6,0.13c-0.18,0.09-0.33,0.22-0.45,0.39
				c-0.1,0.14-0.17,0.3-0.21,0.47s-0.06,0.39-0.06,0.66c0,0.27,0.02,0.49,0.06,0.66c0.04,0.17,0.11,0.33,0.21,0.47
				c0.12,0.17,0.27,0.31,0.45,0.39c0.18,0.09,0.38,0.13,0.6,0.13c0.1,0,0.2-0.01,0.29-0.02c0.09-0.02,0.17-0.04,0.25-0.08
				c0.08-0.04,0.16-0.09,0.24-0.16c0.08-0.07,0.16-0.14,0.24-0.24l0.29,0.26C100.76,29.68,100.65,29.77,100.56,29.85z"/>
			<path class="st0" d="M104.83,29c-0.06,0.28-0.19,0.53-0.4,0.74c-0.14,0.14-0.3,0.25-0.49,0.32c-0.18,0.07-0.39,0.11-0.61,0.11
				c-0.44,0-0.81-0.14-1.1-0.43c-0.21-0.21-0.34-0.45-0.4-0.74c-0.06-0.28-0.09-0.57-0.09-0.85c0-0.28,0.03-0.57,0.09-0.85
				c0.06-0.28,0.19-0.53,0.4-0.74c0.29-0.29,0.65-0.43,1.1-0.43c0.22,0,0.43,0.04,0.61,0.11c0.18,0.07,0.35,0.18,0.49,0.32
				c0.21,0.21,0.34,0.45,0.4,0.74c0.06,0.28,0.09,0.57,0.09,0.85C104.92,28.43,104.89,28.71,104.83,29z M104.49,27.79
				c-0.01-0.12-0.02-0.24-0.05-0.36c-0.02-0.12-0.06-0.23-0.11-0.33c-0.05-0.1-0.11-0.2-0.19-0.28c-0.11-0.11-0.23-0.19-0.37-0.25
				c-0.14-0.06-0.29-0.09-0.45-0.09c-0.32,0-0.6,0.11-0.82,0.34c-0.08,0.08-0.15,0.17-0.19,0.28c-0.05,0.1-0.08,0.21-0.11,0.33
				c-0.02,0.12-0.04,0.24-0.05,0.36c-0.01,0.12-0.01,0.24-0.01,0.35c0,0.11,0,0.23,0.01,0.35c0.01,0.12,0.02,0.24,0.05,0.36
				c0.02,0.12,0.06,0.23,0.11,0.33c0.05,0.1,0.11,0.2,0.19,0.28c0.22,0.22,0.5,0.34,0.82,0.34c0.16,0,0.31-0.03,0.45-0.09
				c0.14-0.06,0.26-0.14,0.37-0.25c0.08-0.08,0.15-0.17,0.19-0.28c0.05-0.1,0.08-0.21,0.11-0.33c0.02-0.12,0.04-0.24,0.05-0.36
				c0.01-0.12,0.01-0.24,0.01-0.35C104.5,28.03,104.5,27.91,104.49,27.79z"/>
			<path class="st0" d="M108.9,30.12v-2.45c0-0.38-0.09-0.67-0.28-0.88c-0.19-0.2-0.46-0.3-0.81-0.3c-0.35,0-0.63,0.1-0.82,0.31
				c-0.19,0.2-0.29,0.5-0.29,0.87v2.45h-0.42v-3.95h0.42v0.47c0.29-0.34,0.68-0.52,1.16-0.52c0.44,0,0.79,0.13,1.05,0.38
				c0.27,0.26,0.41,0.63,0.41,1.1v2.52H108.9z"/>
			<path class="st0" d="M113.27,30.12v-0.51c-0.17,0.23-0.36,0.38-0.55,0.45c-0.19,0.07-0.4,0.11-0.62,0.11
				c-0.21,0-0.39-0.03-0.56-0.09c-0.17-0.06-0.3-0.15-0.41-0.25c-0.2-0.2-0.34-0.45-0.41-0.76c-0.07-0.3-0.1-0.61-0.1-0.92
				s0.03-0.62,0.1-0.92c0.07-0.3,0.2-0.56,0.41-0.76c0.1-0.1,0.24-0.19,0.41-0.25c0.17-0.06,0.35-0.09,0.56-0.09
				c0.22,0,0.43,0.04,0.62,0.11c0.19,0.07,0.37,0.22,0.55,0.45v-2.39h0.42v5.83H113.27z M113.23,27.54
				c-0.02-0.2-0.08-0.38-0.16-0.53c-0.08-0.16-0.19-0.28-0.34-0.38c-0.15-0.1-0.34-0.14-0.58-0.14c-0.24,0-0.43,0.05-0.58,0.14
				c-0.15,0.1-0.26,0.22-0.34,0.38c-0.08,0.16-0.13,0.33-0.16,0.53c-0.02,0.2-0.04,0.4-0.04,0.6c0,0.21,0.01,0.41,0.04,0.61
				c0.02,0.2,0.08,0.37,0.16,0.53c0.08,0.16,0.19,0.28,0.34,0.38c0.15,0.1,0.34,0.14,0.58,0.14c0.24,0,0.43-0.05,0.58-0.14
				c0.15-0.1,0.26-0.22,0.34-0.38c0.08-0.16,0.13-0.33,0.16-0.53c0.02-0.2,0.04-0.4,0.04-0.61
				C113.27,27.94,113.26,27.74,113.23,27.54z"/>
			<path class="st0" d="M115.46,28.23c0,0.5,0.11,0.89,0.33,1.16c0.22,0.27,0.54,0.4,0.96,0.4c0.23,0,0.43-0.04,0.59-0.11
				c0.16-0.07,0.33-0.2,0.5-0.36l0.31,0.25c-0.1,0.1-0.2,0.19-0.3,0.26c-0.1,0.08-0.21,0.14-0.32,0.19
				c-0.11,0.05-0.23,0.09-0.36,0.11c-0.13,0.02-0.28,0.04-0.44,0.04c-0.55,0-0.96-0.17-1.25-0.52c-0.29-0.34-0.43-0.85-0.43-1.51
				c0-0.64,0.14-1.14,0.42-1.49c0.28-0.35,0.67-0.53,1.16-0.53c0.5,0,0.88,0.17,1.16,0.51c0.28,0.34,0.42,0.81,0.42,1.42v0.19
				H115.46z M117.77,27.66c-0.01-0.07-0.01-0.13-0.02-0.18c-0.01-0.05-0.02-0.1-0.04-0.16c-0.02-0.05-0.04-0.11-0.06-0.17
				c-0.09-0.21-0.22-0.37-0.41-0.49c-0.18-0.12-0.39-0.18-0.62-0.18c-0.23,0-0.44,0.06-0.62,0.18c-0.18,0.12-0.32,0.28-0.41,0.49
				c-0.03,0.06-0.05,0.12-0.06,0.17c-0.01,0.05-0.03,0.1-0.04,0.16c-0.01,0.05-0.02,0.11-0.02,0.18c-0.01,0.07-0.01,0.15-0.02,0.24
				h2.32C117.78,27.81,117.78,27.73,117.77,27.66z"/>
			<path class="st0" d="M121.92,29.85c-0.29,0.21-0.67,0.32-1.16,0.32c-0.34,0-0.65-0.05-0.9-0.14c-0.26-0.09-0.49-0.23-0.69-0.43
				l0.29-0.29c0.31,0.32,0.74,0.48,1.29,0.48c0.39,0,0.68-0.07,0.88-0.2c0.2-0.13,0.3-0.33,0.3-0.6c0-0.21-0.06-0.36-0.18-0.47
				c-0.12-0.1-0.31-0.17-0.57-0.2l-0.65-0.06c-0.79-0.07-1.18-0.41-1.18-1.03c0-0.34,0.13-0.62,0.39-0.82c0.26-0.2,0.6-0.3,1.04-0.3
				c0.27,0,0.53,0.04,0.77,0.11c0.24,0.08,0.44,0.18,0.62,0.31l-0.28,0.28c-0.31-0.22-0.67-0.34-1.11-0.34
				c-0.33,0-0.58,0.07-0.75,0.2c-0.17,0.13-0.26,0.32-0.26,0.56c0,0.21,0.06,0.36,0.19,0.46c0.13,0.1,0.33,0.17,0.61,0.2l0.64,0.06
				c0.16,0.02,0.32,0.04,0.46,0.08c0.14,0.04,0.26,0.09,0.36,0.17c0.1,0.08,0.18,0.18,0.24,0.31c0.06,0.13,0.09,0.28,0.09,0.47
				C122.35,29.36,122.2,29.64,121.92,29.85z"/>
		</g>
	</g>
	<g>
		<path class="st0" d="M48.87,0h-1.65c-1.41,0-2.73,0.35-3.94,1.03c-1.19,0.68-2.2,1.65-3.02,2.89l0,0l0,0L39.86,4.6l-0.39-0.67
			C38.05,1.5,35.4,0,32.55,0H30.9c-2.12,0-4.12,0.84-5.66,2.37c-1.52,1.52-2.38,3.51-2.43,5.62l0,10.94c0,0.44,0.33,0.78,0.78,0.78
			c0.4,0,0.73-0.35,0.73-0.78V7.95c0.09-3.49,3.1-6.44,6.58-6.44h1.65c3.57,0,6.58,3.01,6.58,6.58v10.85c0,0.43,0.33,0.78,0.73,0.78
			c0.44,0,0.78-0.33,0.78-0.78V7.95c0.04-1.65,0.76-3.29,1.97-4.5c1.25-1.25,2.88-1.94,4.61-1.94h1.65c3.54,0,6.53,3.01,6.53,6.58
			v10.85c0,0.46,0.4,0.78,0.78,0.78c0.44,0,0.78-0.33,0.78-0.78V8.04V7.99c-0.04-2.13-0.91-4.13-2.45-5.65
			C52.97,0.83,50.97,0,48.87,0z"/>
		<path class="st0" d="M70.38,0h-3.54c-2.13,0-4.15,0.85-5.69,2.39c-1.54,1.54-2.39,3.57-2.39,5.69v3.54c0,2.13,0.85,4.15,2.39,5.69
			c1.54,1.54,3.57,2.4,5.69,2.4h3.54c2.13,0,4.15-0.85,5.69-2.4c1.54-1.54,2.39-3.57,2.39-5.69V8.09c0-2.13-0.85-4.15-2.39-5.69
			C74.52,0.85,72.5,0,70.38,0z M76.96,8.09v3.54c0,3.57-3.01,6.58-6.58,6.58h-3.54c-1.72,0-3.36-0.7-4.62-1.97
			c-1.24-1.25-1.96-2.93-1.96-4.61V8.09c0-1.74,0.71-3.4,1.99-4.66c1.24-1.22,2.92-1.92,4.59-1.92h3.54
			C73.94,1.51,76.96,4.52,76.96,8.09z"/>
		<path class="st0" d="M92.58,0h-3.54c-2.13,0-4.15,0.85-5.69,2.39c-1.54,1.54-2.39,3.57-2.39,5.69v3.54c0,2.13,0.85,4.15,2.39,5.69
			c1.54,1.54,3.57,2.4,5.69,2.4h3.54c2.13,0,4.15-0.85,5.69-2.4c1.54-1.54,2.39-3.57,2.39-5.69V8.09c0-2.13-0.85-4.15-2.39-5.69
			C96.72,0.85,94.7,0,92.58,0z M99.16,8.09v3.54c0,3.57-3.01,6.58-6.58,6.58h-3.54c-1.72,0-3.36-0.7-4.62-1.97
			c-1.24-1.25-1.95-2.93-1.95-4.61V8.09c0-1.74,0.71-3.4,1.99-4.66c1.24-1.22,2.92-1.92,4.59-1.92h3.54
			C96.14,1.51,99.16,4.52,99.16,8.09z"/>
		<path class="st0" d="M121.4,0c-0.23,0-0.52,0.17-0.59,0.41l-6.84,16.4c-0.45,0.94-1.28,1.48-2.27,1.48
			c-1.05,0-1.86-0.53-2.27-1.48L102.58,0.4l0,0l0,0c-0.11-0.22-0.39-0.4-0.63-0.4c-0.46,0-0.73,0.35-0.73,0.69
			c0,0.1,0,0.22,0.06,0.3l6.84,16.34c0.64,1.47,2,2.38,3.57,2.38c1.58,0,2.93-0.91,3.52-2.38l6.84-16.34
			c0.06-0.08,0.06-0.2,0.06-0.3C122.13,0.3,121.81,0,121.4,0z"/>
		<path class="st0" d="M18.5,2.22c-0.68-0.67-1.49-1.21-2.39-1.59c-0.9-0.38-1.85-0.57-2.8-0.57H2.4c-0.68,0-1.26,0.25-1.72,0.74
			C0.23,1.29,0,1.85,0,2.46v14.91c0,0.68,0.24,1.25,0.73,1.71c0.48,0.45,1.04,0.69,1.67,0.69H13.3c1,0,1.97-0.2,2.87-0.61
			c0.9-0.4,1.7-0.95,2.37-1.64c0.67-0.68,1.22-1.48,1.62-2.37c0.4-0.89,0.61-1.84,0.61-2.83V7.5c0-1.04-0.21-2.03-0.62-2.92
			C19.74,3.68,19.18,2.89,18.5,2.22z M19.33,7.64v4.47c0,0.83-0.17,1.63-0.51,2.39c-0.34,0.76-0.81,1.44-1.38,2.03
			c-0.57,0.58-1.26,1.05-2.02,1.39c-0.76,0.34-1.58,0.51-2.43,0.51H3.17c-0.46,0-0.85-0.16-1.21-0.5c-0.35-0.33-0.52-0.73-0.52-1.23
			V3.04c0-0.44,0.16-0.83,0.5-1.19c0.33-0.36,0.73-0.53,1.22-0.53h9.81c0.81,0,1.61,0.16,2.38,0.49c0.77,0.32,1.45,0.78,2.04,1.35
			c0.58,0.57,1.06,1.25,1.41,2.01C19.15,5.92,19.33,6.75,19.33,7.64z"/>
	</g>
</g>
</svg>